<svg height="80" viewBox="0 0 80 80" width="80" xmlns="http://www.w3.org/2000/svg" xmlns:xlink="http://www.w3.org/1999/xlink"><mask id="a" fill="#fff"><path d="m0 .16195046h79.7417075v77.36085654h-79.7417075z" fill="#fff" fill-rule="evenodd"/></mask><g fill="none" fill-rule="evenodd"><path d="m0 0h80v80h-80z" fill="#000" opacity="0"/><path d="m71.4638596 70.225614c-15.1178947.7936842-18.2070175-16.5052631-24.1382456-16.3821052-2.5273684.0529824-4.5192982 2.6954386-3.6445614 5.7750877.4810527 1.6929824 1.8154386 4.1757895 2.6561404 5.7164912 2.965614 5.4368421-1.4185965 11.5894737-6.5491228 12.1098246-8.5259649.8649123-12.0824562-4.0810527-11.8624562-9.1442105.2473685-5.6838597 5.0666667-11.491579.1238597-13.9628071-5.18-2.5898245-9.3908772 7.5375439-14.3477193 9.7978948-4.4863158 2.0459649-10.7140351.4596491-12.92807019-4.5221053-1.55508772-3.5007017-1.2722807-10.2414035 5.65157895-12.8133333 4.32491224-1.6063158 13.96280704 2.1007017 14.45719294-2.5947369.5698246-5.4126315-10.1249122-5.8691228-13.34491224-7.1670175-5.69754386-2.2961404-9.06035088-7.2094737-6.42561404-12.4803509 1.97684211-3.9536842 7.79333334-5.5624561 12.23298248-3.8305263 5.3185965 2.0747368 6.1722807 7.5912281 8.897193 9.8852632 2.3473684 1.9771929 5.56 2.2245614 7.6610526.8652631 1.5494737-1.002807 2.0652632-3.2052631 1.4807017-5.217193-.7754385-2.6708772-2.8333333-4.3375438-4.8410526-5.9705263-3.5729824-2.9045614-8.617193-5.4021052-5.5659649-13.33017542 2.5010526-6.49719298 9.8364912-6.73122807 9.8364912-6.73122807 2.914386-.3277193 5.5242106.5522807 7.6508772 2.4522807 2.8431579 2.54 3.3968421 5.93508772 2.9210527 9.55719299-.4347369 3.3063158-1.6049123 6.2021053-2.2150878 9.4778947-.7080701 3.8031579 1.3245614 7.6354386 5.1901755 7.7845614 5.0845614.1964913 6.6091228-3.7115789 7.231228-6.1887719.9108772-3.6245614 2.1063158-6.9894737 5.4701755-9.1087719 4.8277193-3.0417544 11.5336842-2.3750877 14.6449123 3.4708772 2.4610526 4.625614 1.6708772 10.9933333-2.1042106 14.4705263-1.6936842 1.5596491-3.7301754 2.1094737-5.9329824 2.1249123-3.1589474.0224561-6.3164912-.0550878-9.2487719 1.4231579-1.9961404 1.0059649-2.865965 2.6452631-2.8656141 4.8424561 0 2.1414035 1.1147369 3.54 2.9210527 4.4501754 3.4021052 1.7147369 7.1575438 2.0652632 10.8326315 2.708772 5.3294737.9333333 10.0154386 2.8105263 13.0238597 7.7561403.0270175.0435088.0533333.0873684.0789473.131579 3.4550878 5.8554386-.1582456 14.2866666-6.9477193 14.6435087" fill="#0ac855" mask="url(#a)" transform="translate(0 1.22807)"/></g></svg>